<svg width="462" height="99" viewBox="0 0 462 99" fill="none" xmlns="http://www.w3.org/2000/svg">
<path d="M43.2687 24.8433C44.8946 30.2052 47.2167 35.3593 50.1974 40.1743L50.4179 40.5306C52.6593 44.1516 55.8107 47.1611 59.5312 49.2336C59.762 49.3621 59.9947 49.4868 60.2291 49.6077C59.9947 49.7288 59.762 49.8533 59.5312 49.9819C55.8433 52.0362 52.7159 55.0122 50.4778 58.5913C53.2825 58.3675 55.9851 58.012 58.5402 57.5341C62.0814 54.2613 66.7415 52.4015 71.728 52.4015H72.9051V46.8139H71.728C64.9348 46.8139 58.7442 43.3656 55.1691 37.5898L54.9485 37.2335C49.1367 27.8454 46.065 17.0471 46.065 6.00567V0.217743H40.4774V6.00567C40.4774 13.2094 39.1689 20.3095 36.6459 26.9824C38.6215 26.8559 40.6275 26.7861 42.6534 26.7741C42.8695 26.134 43.0726 25.4898 43.2687 24.8433Z" fill="black"/>
<path d="M72.2617 35.6692C67.6926 33.8131 62.2604 32.447 56.3491 31.634C56.9696 32.8209 57.633 33.9882 58.3414 35.1324L58.5626 35.4894C59.128 36.4029 59.7778 37.2405 60.4953 38.0005C64.0301 38.7259 67.2896 39.6805 70.1588 40.8462C76.3142 43.3469 79.9893 46.6224 79.9893 49.6081C79.9893 52.5938 76.3142 55.8695 70.1588 58.3702C63.055 61.2561 53.5611 62.8509 43.4121 62.8655C44.3042 64.6835 45.1146 66.5367 45.8412 68.42C55.7867 68.1684 65.0878 66.4613 72.2619 63.5468C80.8482 60.0588 85.5768 55.1085 85.5768 49.6081C85.5768 44.1077 80.8482 39.1576 72.2619 35.6694L72.2617 35.6692Z" fill="#0a8f70"/>
<path d="M28.3782 63.7253C27.8377 62.852 27.2207 62.0472 26.5403 61.3143C22.8156 60.5775 19.3854 59.5896 16.3833 58.3698C10.228 55.8691 6.55291 52.5936 6.55291 49.6077C6.55291 46.6219 10.228 43.3465 16.3833 40.8459C23.52 37.9464 33.0691 36.3497 43.2711 36.3497C43.3575 36.3497 43.4434 36.3507 43.5296 36.3509C42.6358 34.5294 41.824 32.6727 41.0965 30.7858C31.0022 31.0016 21.5496 32.7159 14.2805 35.6688C5.69414 39.157 0.965332 44.1073 0.965332 49.6075C0.965332 55.1077 5.69414 60.0581 14.2805 63.5463C18.9596 65.4472 24.5443 66.8343 30.6219 67.6394C29.9927 66.4324 29.3191 65.2453 28.5991 64.0821L28.3782 63.7249V63.7253Z" fill="#0a8f70"/>
<path d="M43.8823 72.4617C43.6685 73.0953 43.468 73.7329 43.2738 74.3727C41.6478 69.0109 39.3258 63.8565 36.3451 59.0415L36.1245 58.6852C33.8831 55.0642 30.7317 52.0547 27.0112 49.9821C26.7805 49.8535 26.5478 49.729 26.3134 49.6079C26.5478 49.4871 26.7805 49.3623 27.0112 49.2338C30.6992 47.1794 33.8269 44.2032 36.0649 40.624C33.2605 40.8478 30.5581 41.2027 28.0032 41.6806C24.4619 44.954 19.8014 46.8143 14.8143 46.8143H13.6372V52.4019H14.8143C21.6077 52.4019 27.798 55.8503 31.3732 61.6261L31.5938 61.9823C37.4054 71.3705 40.4773 82.1688 40.4773 93.2101V98.9981H46.0649V93.2101C46.0649 86.0059 47.3734 78.9054 49.897 72.2323C48.5894 72.3166 47.2701 72.3763 45.9421 72.4097L43.8823 72.4619V72.4617Z" fill="black"/>
<path d="M191.914 32.8432C177.602 32.8432 165.959 44.4866 165.959 58.7984C165.959 73.1101 177.602 84.7554 191.914 84.7554C206.226 84.7554 217.869 73.111 217.869 58.7984C217.869 44.4857 206.226 32.8432 191.914 32.8432ZM191.914 73.6842C183.707 73.6842 177.03 67.0065 177.03 58.7984C177.03 50.5902 183.707 43.9144 191.914 43.9144C200.121 43.9144 206.798 50.5914 206.798 58.7984C206.798 67.0053 200.121 73.6842 191.914 73.6842Z" fill="black"/>
<path d="M380.077 32.8432C365.765 32.8432 354.122 44.4866 354.122 58.7984C354.122 73.1101 365.765 84.7554 380.077 84.7554C394.388 84.7554 406.032 73.111 406.032 58.7984C406.032 44.4857 394.388 32.8432 380.077 32.8432ZM380.077 73.6842C371.87 73.6842 365.193 67.0065 365.193 58.7984C365.193 50.5902 371.87 43.9144 380.077 43.9144C388.284 43.9144 394.961 50.5914 394.961 58.7984C394.961 67.0053 388.284 73.6842 380.077 73.6842Z" fill="black"/>
<path d="M323.827 32.8433C318.52 32.8433 313.589 34.4811 309.511 37.2765V15.1225H298.44V83.6205H323.827C337.826 83.6205 349.215 72.2308 349.215 58.231C349.215 44.2313 337.826 32.8433 323.827 32.8433ZM323.827 72.5393V72.5493H309.521V58.231C309.521 50.3424 315.939 43.9245 323.827 43.9245C331.716 43.9245 338.134 50.3424 338.134 58.231C338.134 66.1197 331.716 72.5393 323.827 72.5393Z" fill="black"/>
<path d="M148.68 57.9518V68.8207C139.871 76.0028 126.006 75.0927 118.266 66.7207C105.91 54.4947 112.916 31.946 129.98 28.8096C137.936 27.4666 146.704 28.9203 153.711 31.9285C154.339 29.9319 156.32 23.6337 156.952 21.6254C142.519 15.3301 123.479 14.7635 111.51 26.4385C102.936 34.4086 99.0859 46.8696 101.669 58.2618C107.015 84.691 142.072 93.9511 159.752 73.5484V49.6079H148.68V57.9518H148.68Z" fill="black"/>
<path d="M436.569 73.6842C428.362 73.6842 421.685 67.0065 421.685 58.7984C421.685 50.5903 428.362 43.9145 436.569 43.9145C442.819 43.9145 448.178 47.7891 450.38 53.2614H461.927C459.383 41.6013 448.98 32.8435 436.569 32.8435C422.257 32.8435 410.614 44.4869 410.614 58.7986C410.614 73.1103 422.257 84.7556 436.569 84.7556C448.98 84.7556 459.382 75.9978 461.927 64.3375H450.38C448.177 69.8098 442.818 73.6844 436.568 73.6844L436.569 73.6842Z" fill="black"/>
<path d="M287.945 42.9822C286.056 39.1905 282.667 36.2831 278.547 35.0437C277.126 34.6083 275.619 34.3804 274.058 34.3804H273.348C269.074 34.3804 265.208 36.1088 262.402 38.9024C261.521 39.7777 260.752 40.7604 260.105 41.8234C258.14 38.6023 255.04 36.1532 251.352 35.0437C249.931 34.6083 248.424 34.3804 246.863 34.3804H246.153C241.879 34.3804 236.772 37.5051 235.429 41.5751L235.199 34.3804H224.217V83.5787H235.237V52.929C235.544 48.748 239.026 45.4542 243.279 45.4542C245.51 45.4542 247.526 46.3586 248.987 47.819C250.447 49.2794 251.352 51.2958 251.352 53.5266V83.5787H262.402V53.5266C262.402 49.065 266.019 45.4542 270.474 45.4542C272.705 45.4542 274.721 46.3586 276.182 47.819C277.642 49.2794 278.547 51.2958 278.547 53.5266V83.5787H289.071C289.071 83.5787 289.071 83.5787 289.071 83.5787H289.567V49.8889C289.567 47.4102 288.984 45.0589 287.945 42.9822Z" fill="black"/>
</svg>