<svg width="152" height="40" viewBox="0 0 152 40" fill="none" xmlns="http://www.w3.org/2000/svg">
<path d="M17.7371 12.4138C18.2389 14.0684 18.9555 15.659 19.8753 17.1449L19.9433 17.2548C20.635 18.3722 21.6075 19.3009 22.7557 19.9405C22.8269 19.9802 22.8987 20.0186 22.971 20.0559C22.8987 20.0933 22.8269 20.1317 22.7557 20.1714C21.6176 20.8054 20.6525 21.7238 19.9618 22.8282C20.8273 22.7592 21.6613 22.6495 22.4498 22.502C23.5426 21.492 24.9807 20.9181 26.5195 20.9181H26.8828V19.1938H26.5195C24.4232 19.1938 22.5128 18.1296 21.4095 16.3473L21.3415 16.2373C19.548 13.3402 18.6001 10.0079 18.6001 6.60058V4.81445H16.8758V6.60058C16.8758 8.8236 16.4719 11.0147 15.6934 13.0739C16.303 13.0349 16.9221 13.0133 17.5473 13.0096C17.6139 12.8121 17.6766 12.6133 17.7371 12.4138Z" fill="white"/>
<path d="M26.6841 15.755C25.2741 15.1822 23.5977 14.7606 21.7735 14.5098C21.965 14.876 22.1697 15.2363 22.3884 15.5894L22.4566 15.6995C22.6311 15.9814 22.8316 16.2399 23.053 16.4744C24.1438 16.6983 25.1497 16.9929 26.0352 17.3526C27.9347 18.1243 29.0688 19.1351 29.0688 20.0565C29.0688 20.9778 27.9347 21.9887 26.0352 22.7604C23.843 23.651 20.9132 24.1431 17.7812 24.1476C18.0565 24.7087 18.3066 25.2806 18.5308 25.8617C21.6 25.7841 24.4703 25.2573 26.6841 24.3579C29.3338 23.2815 30.7931 21.7539 30.7931 20.0565C30.7931 18.3591 29.3338 16.8315 26.6841 15.7551L26.6841 15.755Z" fill="#29F0C0"/>
<path d="M13.1421 24.413C12.9753 24.1435 12.7849 23.8951 12.5749 23.669C11.4255 23.4416 10.3669 23.1367 9.44053 22.7603C7.54102 21.9886 6.40691 20.9778 6.40691 20.0564C6.40691 19.135 7.54102 18.1242 9.44053 17.3525C11.6429 16.4578 14.5897 15.965 17.738 15.965C17.7646 15.965 17.7911 15.9653 17.8177 15.9654C17.5419 15.4033 17.2914 14.8303 17.0669 14.248C13.9518 14.3146 11.0348 14.8436 8.7916 15.7549C6.1419 16.8313 4.68262 18.359 4.68262 20.0563C4.68262 21.7537 6.1419 23.2813 8.7916 24.3577C10.2356 24.9444 11.959 25.3724 13.8345 25.6209C13.6403 25.2484 13.4324 24.8821 13.2103 24.5231L13.1421 24.4129V24.413Z" fill="#29F0C0"/>
<path d="M17.9263 27.1082C17.8603 27.3037 17.7984 27.5005 17.7385 27.6979C17.2367 26.0433 16.5201 24.4526 15.6003 22.9668L15.5322 22.8568C14.8406 21.7394 13.8681 20.8107 12.7199 20.1711C12.6487 20.1314 12.5769 20.093 12.5046 20.0556C12.5769 20.0183 12.6487 19.9798 12.7199 19.9401C13.858 19.3062 14.8232 18.3877 15.5138 17.2832C14.6484 17.3523 13.8145 17.4618 13.026 17.6093C11.9332 18.6194 10.495 19.1935 8.95602 19.1935H8.59277V20.9178H8.95602C11.0524 20.9178 12.9627 21.982 14.066 23.7643L14.1341 23.8743C15.9275 26.7714 16.8755 30.1037 16.8755 33.511V35.2972H18.5998V33.511C18.5998 31.2878 19.0036 29.0966 19.7824 27.0374C19.3788 27.0634 18.9717 27.0818 18.5619 27.0921L17.9263 27.1082V27.1082Z" fill="white"/>
<path d="M63.6082 14.8828C59.1917 14.8828 55.5986 18.4759 55.5986 22.8924C55.5986 27.309 59.1917 30.9026 63.6082 30.9026C68.0248 30.9026 71.6179 27.3092 71.6179 22.8924C71.6179 18.4756 68.0248 14.8828 63.6082 14.8828ZM63.6082 27.4861C61.0756 27.4861 59.0152 25.4254 59.0152 22.8924C59.0152 20.3594 61.0756 18.2993 63.6082 18.2993C66.1409 18.2993 68.2013 20.3598 68.2013 22.8924C68.2013 25.4251 66.1409 27.4861 63.6082 27.4861Z" fill="white"/>
<path d="M121.675 14.8828C117.258 14.8828 113.665 18.4759 113.665 22.8924C113.665 27.309 117.258 30.9026 121.675 30.9026C126.091 30.9026 129.684 27.3092 129.684 22.8924C129.684 18.4756 126.091 14.8828 121.675 14.8828ZM121.675 27.4861C119.142 27.4861 117.082 25.4254 117.082 22.8924C117.082 20.3594 119.142 18.2993 121.675 18.2993C124.207 18.2993 126.268 20.3598 126.268 22.8924C126.268 25.4251 124.207 27.4861 121.675 27.4861Z" fill="white"/>
<path d="M104.316 14.8826C102.678 14.8826 101.156 15.388 99.898 16.2507V9.41406H96.4814V30.5522H104.316C108.636 30.5522 112.15 27.0374 112.15 22.7171C112.15 18.3969 108.636 14.8826 104.316 14.8826ZM104.316 27.1326V27.1357H99.9011V22.7171C99.9011 20.2827 101.882 18.3022 104.316 18.3022C106.75 18.3022 108.731 20.2827 108.731 22.7171C108.731 25.1515 106.75 27.1326 104.316 27.1326Z" fill="white"/>
<path d="M50.2666 22.6312V25.9853C47.5482 28.2017 43.2696 27.9208 40.8808 25.3373C37.0681 21.5644 39.2301 14.606 44.4958 13.6381C46.951 13.2236 49.6567 13.6722 51.819 14.6006C52.0128 13.9844 52.6242 12.0408 52.8191 11.4211C48.3652 9.47838 42.4896 9.30353 38.796 12.9064C36.1502 15.3659 34.9621 19.2113 35.7591 22.7269C37.4091 30.8828 48.2273 33.7404 53.6832 27.4442V20.0563H50.2667V22.6312H50.2666Z" fill="white"/>
<path d="M139.107 27.4861C136.575 27.4861 134.514 25.4254 134.514 22.8924C134.514 20.3594 136.575 18.2993 139.107 18.2993C141.036 18.2993 142.69 19.495 143.369 21.1837H146.933C146.148 17.5854 142.937 14.8828 139.107 14.8828C134.691 14.8828 131.098 18.4759 131.098 22.8924C131.098 27.309 134.691 30.9026 139.107 30.9026C142.937 30.9026 146.147 28.2 146.933 24.6017H143.369C142.69 26.2904 141.036 27.4861 139.107 27.4861L139.107 27.4861Z" fill="white"/>
<path d="M93.2435 18.0109C92.6605 16.8408 91.6144 15.9436 90.343 15.5611C89.9048 15.4268 89.4396 15.3564 88.9579 15.3564H88.7388C87.4198 15.3564 86.227 15.8898 85.3608 16.7519C85.0891 17.022 84.8518 17.3253 84.6519 17.6533C84.0455 16.6593 83.089 15.9035 81.9508 15.5611C81.5125 15.4268 81.0474 15.3564 80.5657 15.3564H80.3465C79.0276 15.3564 77.4516 16.3207 77.0373 17.5767L76.9663 15.3564H73.5771V30.5388H76.9779V21.0804C77.0726 19.7902 78.1471 18.7737 79.4597 18.7737C80.1481 18.7737 80.7704 19.0528 81.221 19.5035C81.6717 19.9542 81.9508 20.5764 81.9508 21.2649V30.5388H85.3608V21.2649C85.3608 19.888 86.4772 18.7737 87.852 18.7737C88.5404 18.7737 89.1626 19.0528 89.6133 19.5035C90.064 19.9542 90.3431 20.5764 90.3431 21.2649V30.5388H93.5908C93.5908 30.5388 93.5908 30.5388 93.5909 30.5388H93.7438V20.1423C93.7438 19.3774 93.5639 18.6517 93.2435 18.0109Z" fill="white"/>
</svg>